<svg class="icon" style="width: 1em;height: 1em;vertical-align: middle;fill: currentColor;overflow: hidden;" viewBox="0 0 1024 1024" version="1.1" xmlns="http://www.w3.org/2000/svg"><path d="M512.78747336 189.40294037A372.25009177 372.25009177 0 1 1 512.73122556 933.8468761a372.25009177 372.25009177 0 0 1 0-744.50018353z m20.02433313 179.43151904h-39.93616901a6.69352725 6.69352725 0 0 0-6.69352725 6.69352725V604.2328627c0 2.19367667 1.01246621 4.1623613 2.75615881 5.39982038l137.41416897 100.23415877a6.63727863 6.63727863 0 0 0 9.28094102-1.4624511l23.79295651-32.39891977a6.5247822 6.5247822 0 0 0-1.51869891-9.22469321L539.44908511 581.17113175V375.52798666a6.69352725 6.69352725 0 0 0-6.63727862-6.69352726zM711.28710712 90.125a24.80542356 24.80542356 0 0 1-1e-8 49.61084629H314.23159262a24.80542356 24.80542356 0 0 1 0-49.61084629h397.1117623z" /></svg>